<svg xmlns="http://www.w3.org/2000/svg" viewBox="0 0 256 256" fill="none" shape-rendering="auto" aria-hidden="true" width="512" height="512"><metadata xmlns:rdf="http://www.w3.org/1999/02/22-rdf-syntax-ns#" xmlns:xsi="http://www.w3.org/2001/XMLSchema-instance" xmlns:dc="http://purl.org/dc/elements/1.1/" xmlns:dcterms="http://purl.org/dc/terms/"><rdf:RDF><rdf:Description><dc:title>Croodles - Doodle your face</dc:title><dc:creator>vijay verma</dc:creator><dc:source xsi:type="dcterms:URI">https://www.figma.com/community/file/966199982810283152</dc:source><dcterms:license xsi:type="dcterms:URI">https://creativecommons.org/licenses/by/4.0/</dcterms:license><dc:rights>Remix of “Croodles - Doodle your face” (https://www.figma.com/community/file/966199982810283152) by “vijay verma”, licensed under “CC BY 4.0” (https://creativecommons.org/licenses/by/4.0/)</dc:rights></rdf:Description></rdf:RDF></metadata><defs><g id="nose-variant05-fc11234b"><path d="M20.3 7.5c2.7 8 7.6 25.3 5.8 29.4-2.1 5-5.4-2.3-5.4 3.5-1 2.8-3.8 3.2-5.1-1.6-1.3-4.7-5.2 3.5-6.5 1.6-3.6-1.6-.7-7.1 1.2-8.9" stroke="black" stroke-width="3" stroke-linecap="round" stroke-linejoin="round"/></g><g id="beard-variant04-fc11234b"><path d="M35.4 53.2c2.1 9-.1 17 1 20.4M75.8 47c0 7.6-.8 14.4-.8 17.8M64.2 76.1c0 2.6 1 9.8 1 12.4m-3.3.9c-1.4-3.2-3.3-14.1-4.1-16.3M40.2 45.3c1 3.8-1.8 25.1 6.1 42.8M33 79.2a76 76 0 0 1-1.5-22.7m40 28.9A40 40 0 0 1 71 69m-3.5 6.1C66 69.4 69 60.3 69.7 54.5m-44.4-4.1c-3.6 5 0 16.9 0 23.1m60.3-27.2c2 3.5 4 12.3 4 20.8m-7.3-13.3c0 7.2-3.4 16.3-3.4 20.3M49.5 76c-1.7-2.5-6.4-19.6-4.3-26m9.2 22.4c0-3-2-6.2-3-11.7m3.2 26.5c-.7-8-1.5-7.1-1.5-14.1m-17.8 16c-2.6-7.2-6.4-8.6-7.7-13.6m66.1 2.7c0-3 1-8.2 1-10.1M41 95.3c-.8-8-2.5-11.5-2.5-18.4m23.8-.1c-.8-8-2.5-11.5-2.5-18.4M87.2 84c-.7-8-1.8-9.2-1.8-16.1M52.3 97.3c-3.1-7.8-1.7-10-3.8-17.7m9.3 22.8A38 38 0 0 0 55 90m7.4 12.3c.5-1.8 0-5.7 0-8.5M33.6 51.1c.6-1.8 0-4.5 0-7.3m-5.1 3.7c-1.2-2.5 1.3-4.1 1.3-7M50 55v-8.3m19.9 3.5v-5.7m10.9 4.9c0-2.1 0-4.5-1.4-6.8m14.8 15.2c.6-1.7 0-4.5 0-7.2M91.3 47c-.4-1.8-2.2-4-3.5-6.4m-20.5 60.3c.6-1.8 1-5.5 1-9.4M56.3 60c-1-2.2-.5-6.5-2.2-10.5m10.5 8.3c0-2.4-1.6-5.2-1.6-9.7m19.3 40c.5-2.3-.5-5.4.5-9.8m-9.3 17.5c1.1-2.1 1-5.3 3.1-9.3M48 102c-.5-2.7-1.8-7.5-3.5-11.5m33.2-5.3A32 32 0 0 0 75 72.8" stroke="black" stroke-width="3" stroke-linecap="round" stroke-linejoin="round"/></g><g id="mouth-variant03-fc11234b"><path d="M17 9.5c-1.3 2.1.4 7.7 15.3 6.8s19-9 14.5-8.8c-6.2.2-10.7 4.2-20.1 2-3.4-.7-8.5-2-9.7 0" stroke="black" stroke-width="3" stroke-linecap="round" stroke-linejoin="round"/></g><g id="top-variant05-fc11234b"><path d="M163.5 74.3c-3 2.4-5.4 7.1-3 9.9 3.9 4.6 8.5 4.5 10 1.2 1.3-3.4.6-8.3-2-9.4q-3.2-1-4.8.4m-24.9 2.2c1.3-5.2 0-12.7-5-14-8.4-2.1-13.5 1.8-12.3 6.9 1.3 5 6.4 10 10.1 9.3a7 7 0 0 0 5.3-4.4" stroke="#ffc700" stroke-width="3" stroke-linecap="round" stroke-linejoin="round"/><path d="M148.6 69.3c-2.9 3-5 9.5-2 12.2 4.9 4.6 10.4 5.2 12.7-1.8 1.2-3.8-2.2-8.4-5-9.2q-3.6-.7-5.3 1M54.9 110c-4.3 3-1 10 4.5 10 9.2-.1 8.5-3.6 5.8-8.5-2.6-4.8-10.3-7.4-12.3-4m29.3-26.6c3.5-2.6 10.5-3.7 13 0 .9 1.3-.5 8.6-4 10.3-2.8 1.4-7.3 3.4-11.1 1.5-3.9-2-3.6-7.5 2.1-11.8" stroke="#ffc700" stroke-width="3" stroke-linecap="round" stroke-linejoin="round"/><path d="M99.2 77.9c3.5-2.6 10.5-3.7 13 0 .9 1.3-.5 8.6-4 10.3-2.8 1.4-7.3 3.4-11.1 1.5-3.9-2-3.6-7.5 2.1-11.8M68 78c9.6-6.5 19.8-7 22-2.5C92.4 80 86.9 85 83.7 87c-6 3.6-15 5-19 3.1-3.8-1.9-2.5-8 3.5-12.1m75 9.6c-1.4-2 1.8-2.6 5-3.3a7 7 0 0 1 5 1c1.8 1 1 2.5-.5 4.5-1.4 2-7 1.3-9.5-2.2m13.3 4.4c-1.5-2-1.7-3.8.5-6 1.5-1.5 3-1.3 4.5-.5 1.8 1 2.5 4 1 6s-3.5 4-6 .5M55.2 120.5c2.5-2.1 7.6-.7 8.9 3.2.8 2.4.2 4.6-.6 6.6-1 2.4-5.4 2.9-8.3 1.2s-4.3-7.3 0-11M138.4 66c3.5-1.8 8.8-2.8 10.7 1.7 1 2.2 0 4.5-1.2 6.1-1.5 2.1-5.8 3.5-9.8 2.2-4-1.4-5.7-6.8.3-10m-21 13c3.5-1.8 8.8-2.8 10.7 1.7 1 2.2 0 4.5-1.2 6.1-1.5 2.1-5.9 3.5-9.8 2.2-4-1.4-5.7-6.8.3-10" stroke="#ffc700" stroke-width="3" stroke-linecap="round" stroke-linejoin="round"/><path d="M86.1 68c4.2-1.8 10.7-2.8 13 1.7 1 2.2-.1 4.5-1.5 6.1-1.8 2.1-7 3.5-11.8 2.2-4.7-1.4-6.8-6.8.3-10m47.3 12c3.5-1.8 8.8-2.8 10.7 1.7 1 2.2 0 4.5-1.2 6.1-1.5 2.1-5.8 3.5-9.8 2.2-4-1.4-5.7-6.8.3-10m-24.5-16.4c5-2.5 12.4-3.8 15 2.2 1.4 3 0 6-1.6 8.2-2.1 2.7-8.2 4.6-13.8 2.8-5.5-1.9-8-9 .4-13.2m66.6 49.8c2.2-3.6 4.3-5 8.3-2.8 2 1 2.3 3.4 2 5.4-.2 2.4.6 5.4-3.7 6.9a6.1 6.1 0 0 1-6.6-9.5m4.3-12.5c1.4 3.5-.4 7.5-4.7 9-2 .7-5.2 2.7-6.6 1.4-1.8-1.6-2-7-.3-10.7s9.3-5.6 11.6.3m-100.3 3.9c0-4 2.6-10 6.8-10.5 2-.3 5.3 1.2 6.2 2.9 1 2-.2 6.8-2.7 10.4-2.6 3.6-10 4-10.3-2.8m-20-3.2c-.6-5.5 5.5-10.7 12-11.1 3.3-.2 5.5.3 7.6 2.2 2 1.8 2.1 5.7-1.5 10.3-3.7 4.5-17.2 7.8-18.1-1.4m4.7 25.7c-.4-4.5 4.7-8.8 10-9.2q3.9-.3 6.2 1.9c1.7 1.4 1.8 4.7-1.2 8.4s-14.1 6.5-15-1.1" stroke="#ffc700" stroke-width="3" stroke-linecap="round" stroke-linejoin="round"/><path d="M66.4 113.3c-1.4-3.6 1.8-8.2 6.1-9.7 2.2-.7 3.7-.8 5.5 0 1.7 1 2.5 3.6.9 7.3s-10.1 8.4-12.5 2.4" stroke="#ffc700" stroke-width="3" stroke-linecap="round" stroke-linejoin="round"/><path d="M71.1 102.7c-1.2-3 1.5-6.9 5.1-8.1q2.5-.9 4.6 0c1.4.8 2 3 .7 6-1.3 3.2-8.4 7.1-10.4 2M91 94.9c-.8-2.3 1.2-5.3 4-6.3q2-.6 3.5.1c1 .5 1.6 2.2.6 4.6s-6.5 5.4-8 1.6m86.3-15.6c3.7 1.2 7.5 7.3 6 11.5-.8 2.2-4 2.7-5.8 3.5s-4.2-.2-6-3.8c-2-3.6-.3-13 5.8-11.2m-80.3-16c4.4-3.2 12-2 15.2 2.7 1 1.6.5 7-1 10-1.8 3.6-9.3 4.3-14.2 1.9-4.9-2.5-7.3-9.1 0-14.6" stroke="#ffc700" stroke-width="3" stroke-linecap="round" stroke-linejoin="round"/><path d="M162.5 89.6c2.7-2 7.6-1.2 9.7 1.7.6 1 .3 4.3-.7 6.1-1.2 2.3-6 2.7-9 1.2-3.2-1.5-4.7-5.6 0-9M62 131.5c0-2.6 2.9-5.1 5.7-5 2.2.5 2.8 2.1 3.4 3.6.9 1.8-1.2 4.9-3.6 6s-5.8 0-5.6-4.6m118.7-7.3c.1-2.6 3-5.1 5.8-5 2.2.5 2.8 2.1 3.4 3.6.9 1.8-1.2 4.9-3.6 6s-5.8 0-5.6-4.6m5.9-10.7c.1-2.7 2.7-7.7 5.5-7.5 2.2.4 2.5 1.5 2.8 5.8.2 2-1.2 4.9-3.6 6s-4.9.2-4.7-4.3m-124.7-.2c1.9-2 3.4-2.8 4.8 0 .5 1 1.3 2.7.7 4.5-.8 2.1-4 5.8-6 4.4-2.2-1.5-2.7-5.6.5-9" stroke="#ffc700" stroke-width="3" stroke-linecap="round" stroke-linejoin="round"/><path d="M177.6 92.4c.8-4.3 5.6-3.4 7.7-2.4 2 1.1 5.2 5.3 6 8.1 1 3.6-1.1 10.7-5.3 11.7-7 1.5-9.6-10-8.4-17.4" stroke="#ffc700" stroke-width="3" stroke-linecap="round" stroke-linejoin="round"/></g><g id="eyes-variant05-fc11234b"><path d="M27.7 22c2.6 2 7.7 6 8.2 8 .4 1.8-8.8 5.2-13.4 6.7m64.4-16.2c-3.6 1.3-10.5 4.3-9.7 6 1 2.1 6.9 3.7 9.7 5.8" stroke="black" stroke-width="3" stroke-linecap="round" stroke-linejoin="round"/></g><g id="head-variant02-fc11234b"><path d="M123.9 108.8c18.8-2.5 39.9.4 53.1 13.9l.6.2c3 2 4.6 4.2 6 7.5q1.4 3.9 2.8 10.5c1.3.1 3.5.5 5.4 2.1 2.2 2 3.3 5.5 2.3 11.2a29 29 0 0 1-3.5 11q-1.1 2.4-3 4a5 5 0 0 1-5.2.5q-1.5 5.3-3.5 10.8a250 250 0 0 1-15 35.9 93 93 0 0 1-15.2 20.2 28 28 0 0 1-19.2 8.4 16 16 0 0 1-8.5-3.3 58 58 0 0 1-9.4-8.3 194 194 0 0 1-36.2-59.6c-1.6.5-3.8.3-5.8-1.6q-3-2.5-4.7-10.9c-2-10.9 4.2-17.2 9.2-17.2h.1q1.5-6.1 2.8-9c1.2-2.7 2.5-4.1 4-5.8l1.3-1.5c3.1-4.3 8.6-8.2 15.3-11.4a90 90 0 0 1 26.3-7.6" fill="#ffffff"/><path d="M187 142.1c2.2 0 9 .8 7 11.9-.8 4.9-1.6 7.5-3.4 10.8-1.5 2.9-3.7 5.2-6.4 3.9M72.8 145.3c-3.8 0-10 5.4-8 16 2.3 11.3 6.6 12.2 8.8 11.5" stroke="black" stroke-width="3" stroke-linecap="round" stroke-linejoin="round"/><path d="M82 128.5c-4 4.9-5.7 4.9-9.7 25.7s38.7 91.3 57.2 91.3c14 0 24.2-12.4 33.8-28.5 6.7-11.2 26-61.3 23.4-73.3s-3.5-16.6-9-20.2" stroke="black" stroke-width="3" stroke-linecap="round" stroke-linejoin="round"/><use transform="translate(118 153)" href="#nose-variant05-fc11234b"/><use transform="translate(72 196)" href="#beard-variant04-fc11234b"/><use transform="translate(101 212)" href="#mouth-variant03-fc11234b"/><use transform="translate(2 20)" href="#top-variant05-fc11234b"/><use transform="translate(76 127)" href="#eyes-variant05-fc11234b"/></g><clipPath id="clip-fc11234b"><rect width="256" height="256" rx="0" ry="0"/></clipPath></defs><g clip-path="url(#clip-fc11234b)"><use transform="translate(-1.5 -33.5)" href="#head-variant02-fc11234b"/></g></svg>