<svg xmlns="http://www.w3.org/2000/svg" viewBox="0 0 256 256" fill="none" shape-rendering="auto" aria-hidden="true" width="512" height="512"><metadata xmlns:rdf="http://www.w3.org/1999/02/22-rdf-syntax-ns#" xmlns:xsi="http://www.w3.org/2001/XMLSchema-instance" xmlns:dc="http://purl.org/dc/elements/1.1/" xmlns:dcterms="http://purl.org/dc/terms/"><rdf:RDF><rdf:Description><dc:title>Croodles - Doodle your face</dc:title><dc:creator>vijay verma</dc:creator><dc:source xsi:type="dcterms:URI">https://www.figma.com/community/file/966199982810283152</dc:source><dcterms:license xsi:type="dcterms:URI">https://creativecommons.org/licenses/by/4.0/</dcterms:license><dc:rights>Remix of “Croodles - Doodle your face” (https://www.figma.com/community/file/966199982810283152) by “vijay verma”, licensed under “CC BY 4.0” (https://creativecommons.org/licenses/by/4.0/)</dc:rights></rdf:Description></rdf:RDF></metadata><defs><g id="nose-variant01-6dcd8d42"><path d="M13.2 14.5c3.9 2.1 11 11.9 10.2 17.3-.5 3.6-8.5 2.5-12.9 1.7" stroke="black" stroke-width="3" stroke-linecap="round" stroke-linejoin="round"/></g><g id="mouth-variant14-6dcd8d42"><path d="M12.5 13.6s4.2 1.5 7 0c2.9-1.6 3-6 5.2-3.7 2.6 3 3 4.9 4.5 6.3 1.5 1.5 2.6-5 3.9-7 1.2-2.3 4.6 6.1 6.6 6.1 1.9 0 1.4-9.5 3.6-7.5 2.1 1.9 1.8 5.4 8.8 3.4" stroke="black" stroke-width="3" stroke-linecap="round" stroke-linejoin="round"/></g><g id="top-variant22-6dcd8d42"><path d="m80.4 97.5 7.6 9.3-7.6-16.3L93 108.3 81.8 83.6l19.4 26.2-6.8-19.3c5.7 8.3 17 24.1 16 21.3s-5.6-12.8-8-17.5l17.5 19-6.4-17.8 13.8 16.3-2.5-13 10 11-2.3-15.5 10 15.5-5-18.2 13.2 16.7-4.5-19.2 12 17.7-5.4-19.6 10.9 18.3-5.5-19.7 11 18-5.5-20.2 11 18-5.5-20" stroke="#0fa958" stroke-width="6" stroke-linecap="round" stroke-linejoin="round"/><path d="M52.5 65c22.9-11.1 71-33.5 80.3-33.5 9.4 0 51.6 15.6 71.6 23.4l-81.8 43.8-66.3-35.5" stroke="#0fa958" stroke-width="3" stroke-linecap="round" stroke-linejoin="round"/><path d="m194.3 56.6-4.2-5.2-3.2 11-3.1-13.8-5.8 18.5-2-21.7-6.6 27.5a110 110 0 0 0 0-29.6C167 35 165.9 74 163.5 67c-1.8-5.6-3-22-3.8-27.3v36l-7.1-37.3v41.2l-5.5-43-3.2 46-5.5-47.8-3.9 56.1-4-56.1-2.3 59.5-6.3-57.7-2.4 57.7-4.6-55.9-5.3 52.5-2.6-49.7-4.9 45-3.4-40.9L95 82.7l-2-34-5.4 31L86 51.4c-1 7.8-3.6 23.7-5.2 24.4-2 1-1.7-11.8-1.3-20 .3-6.7-3 5.7-5.4 13.6l-3-11-2.4 8.7-4.2-4.7" stroke="#0fa958" stroke-width="6" stroke-linecap="round" stroke-linejoin="round"/><path d="M77.6 76v27.5c0 3.2 34.6 12.1 42.4 12.1 6.3 0 40.3-8 56.6-12.1V71.2M54.3 66.5 48.5 108m6.3-42.1v40m.7-40 3.5 38" stroke="#0fa958" stroke-width="3" stroke-linecap="round" stroke-linejoin="round"/></g><g id="eyes-variant02-6dcd8d42"><path d="M31.4 26.2c7.1-2.6 13.3 5.2 13.3 10.9 0 6.8-5.3 12.5-10.3 12.5s-9.9-5.7-9.9-12.5c0-5.7 4-9.8 7.8-11.3M75 21.7c6.5-2.6 11 5.4 11 11 0 6.8-4 12.6-8.6 12.6s-9-4.7-9-12.2 3.6-10.2 7.1-11.6" stroke="black" stroke-width="3" stroke-linecap="round" stroke-linejoin="round"/><path d="M37.6 39q0 0 0 0m41.9-2.3q0 0 0 0" stroke="black" stroke-width="6" stroke-linecap="round" stroke-linejoin="round"/><path d="M25.7 17.8c2.8-3.2 10-7.9 17-1.6m21-2.6C68 9.4 78 3.2 83.7 11.8" stroke="black" stroke-width="3" stroke-linecap="round" stroke-linejoin="round"/></g><g id="head-variant02-6dcd8d42"><path d="M123.9 108.8c18.8-2.5 39.9.4 53.1 13.9l.6.2c3 2 4.6 4.2 6 7.5q1.4 3.9 2.8 10.5c1.3.1 3.5.5 5.4 2.1 2.2 2 3.3 5.5 2.3 11.2a29 29 0 0 1-3.5 11q-1.1 2.4-3 4a5 5 0 0 1-5.2.5q-1.5 5.3-3.5 10.8a250 250 0 0 1-15 35.9 93 93 0 0 1-15.2 20.2 28 28 0 0 1-19.2 8.4 16 16 0 0 1-8.5-3.3 58 58 0 0 1-9.4-8.3 194 194 0 0 1-36.2-59.6c-1.6.5-3.8.3-5.8-1.6q-3-2.5-4.7-10.9c-2-10.9 4.2-17.2 9.2-17.2h.1q1.5-6.1 2.8-9c1.2-2.7 2.5-4.1 4-5.8l1.3-1.5c3.1-4.3 8.6-8.2 15.3-11.4a90 90 0 0 1 26.3-7.6" fill="#ffffff"/><path d="M187 142.1c2.2 0 9 .8 7 11.9-.8 4.9-1.6 7.5-3.4 10.8-1.5 2.9-3.7 5.2-6.4 3.9M72.8 145.3c-3.8 0-10 5.4-8 16 2.3 11.3 6.6 12.2 8.8 11.5" stroke="black" stroke-width="3" stroke-linecap="round" stroke-linejoin="round"/><path d="M82 128.5c-4 4.9-5.7 4.9-9.7 25.7s38.7 91.3 57.2 91.3c14 0 24.2-12.4 33.8-28.5 6.7-11.2 26-61.3 23.4-73.3s-3.5-16.6-9-20.2" stroke="black" stroke-width="3" stroke-linecap="round" stroke-linejoin="round"/><use transform="translate(118 153)" href="#nose-variant01-6dcd8d42"/><use transform="translate(101 212)" href="#mouth-variant14-6dcd8d42"/><use transform="translate(2 20)" href="#top-variant22-6dcd8d42"/><use transform="translate(76 127)" href="#eyes-variant02-6dcd8d42"/></g><clipPath id="clip-6dcd8d42"><rect width="256" height="256" rx="0" ry="0"/></clipPath></defs><g clip-path="url(#clip-6dcd8d42)"><use transform="translate(-1.5 -33.5)" href="#head-variant02-6dcd8d42"/></g></svg>