<svg xmlns="http://www.w3.org/2000/svg" viewBox="0 0 256 256" fill="none" shape-rendering="auto" aria-hidden="true" width="512" height="512"><metadata xmlns:rdf="http://www.w3.org/1999/02/22-rdf-syntax-ns#" xmlns:xsi="http://www.w3.org/2001/XMLSchema-instance" xmlns:dc="http://purl.org/dc/elements/1.1/" xmlns:dcterms="http://purl.org/dc/terms/"><rdf:RDF><rdf:Description><dc:title>Croodles - Doodle your face</dc:title><dc:creator>vijay verma</dc:creator><dc:source xsi:type="dcterms:URI">https://www.figma.com/community/file/966199982810283152</dc:source><dcterms:license xsi:type="dcterms:URI">https://creativecommons.org/licenses/by/4.0/</dcterms:license><dc:rights>Remix of “Croodles - Doodle your face” (https://www.figma.com/community/file/966199982810283152) by “vijay verma”, licensed under “CC BY 4.0” (https://creativecommons.org/licenses/by/4.0/)</dc:rights></rdf:Description></rdf:RDF></metadata><defs><g id="nose-variant02-b25356d1"><path d="M21.2 9.5c5 4 12 23 6 29s-8.7-4.7-13.8-4.7-9 6-8.5-1c.4-5.6 4-5.5 4.7-5.8" stroke="black" stroke-width="3" stroke-linecap="round" stroke-linejoin="round"/></g><g id="mouth-variant17-b25356d1"><path d="M41.9 6c-4.2 2-20.4 6.7-30.4 4.2 6.2 10 35 11.4 39.6 2.5C56.1 3.3 47 3.4 42 6" stroke="black" stroke-width="3" stroke-linecap="round" stroke-linejoin="round"/></g><g id="top-variant23-b25356d1"><path d="M79.3 108.4 48.5 83c6-10.5 35.7-33.5 53.4-33.5 22 0 18.7 14.3 27 14.3 12.6 0 11.1-3 19.6-12.2 6.7-7.4 43.3 6.8 66 17.3l-39.2 34.3C169 99.8 145 95 127.4 95c-17 0-40.4 8.2-48.1 13.4" stroke="#f24e1e" stroke-width="3" stroke-linecap="round" stroke-linejoin="round"/><path d="M157.4 62.5c-1 8.5-3 29.7-3 33.2 0 3.9-5-26.5-5.7-28.4l-1.5 27-3.9-24.5-2 24.4-4.7-24-.6 21-6.5-21.4-2.4 21.4-4.5-21.4-1.7 21.4L115 68l2.3 24.5-14.2-31.4 8.4 33.1-4.1-7.7-13-24 8.7 34.3L88 65.4 97.1 99 80 69.8l8.1 27-14.6-22 13.1 27.5L71.7 80l10.5 25-17-25 6.5 20L62 85.3m98.4 10.4 5.4-31.3v33.8L174 68l-1.7 26.2 7.8-24L174 100l11-28.2-1.5 19.4 7.8-17.5V83l5.5-6" stroke="#f24e1e" stroke-width="6" stroke-linecap="round" stroke-linejoin="round"/><path d="M55.7 87C65.8 77.3 89 57.8 101 57.3s5 5.3 19 12l22.4-2.2c7.6-2.9 10-11 18.3-8s26.1 11.7 43 17.3" stroke="#f24e1e" stroke-width="3" stroke-linecap="round" stroke-linejoin="round"/></g><g id="eyes-variant11-b25356d1"><path d="M32.8 25.9a1.5 1.5 0 0 1 1.5 1.6l.5.1a7 7 0 0 1 3 3.7 12 12 0 0 1 .8 6.9 5 5 0 0 1-2.3 3.6q-1.7 1-3.5 1.1a14 14 0 0 1-5.5-.6c-.7-.4-2-1.2-3-2.7a9 9 0 0 1-1-6.9 8 8 0 0 1 4.2-5.4c1.8-1 4-1.3 5.3-1.4m-4.5 10-.1.3.2.2zm3.1-4.2a1.5 1.5 0 0 0-2.8.1l-.4.2a2 2 0 0 0-.9 1 2 2 0 0 0 0 1.5 2 2 0 0 0 2.3 1.4q1.2 0 2-1.3.4-.7.3-1.2l-.4-1.5zm-.2 2.6V34l.1-.2zM27 31.5a4 4 0 0 0-.9 2.1l.4-1zM82 24a1.5 1.5 0 0 1 1.5 1.6l.5.1a7 7 0 0 1 3 3.6 12 12 0 0 1 .8 7 5 5 0 0 1-2.3 3.5q-1.7 1-3.5 1.2a14 14 0 0 1-5.5-.6c-.7-.4-2-1.2-3-2.8a9 9 0 0 1-1-6.8 8 8 0 0 1 4.2-5.4c1.8-1 3.9-1.4 5.2-1.4m.9 10.3a1.5 1.5 0 1 0 0 3 1.5 1.5 0 0 0 0-3m-5.4-.3-.2.3.3.2zm3.1-4.3a1.5 1.5 0 0 0-2.8.2l-.4.2a2 2 0 0 0-.9 1 2 2 0 0 0 0 1.5 2 2 0 0 0 2.3 1.4q1.2 0 2-1.3.4-.8.3-1.2l-.4-1.5zm-.2 2.6v-.2l.1-.2zM76 29.6a4 4 0 0 0-.8 2.1l.4-1q0-.6.4-1" fill="black"/><path d="M25 20.3c1-1.3 3.8-3.4 6-2m44.4-1.8c1.1-1.3 4.3-1.4 4.8 0" stroke="black" stroke-width="3" stroke-linecap="round" stroke-linejoin="round"/></g><g id="head-variant01-b25356d1"><path d="M176.5 141.3q.5.6.4 1.3 2.9 3.5 4.8 8 1.8-.7 3.9-.6 2.7.2 4.4 3c2 3.5 3.4 8 1.8 14.6a8 8 0 0 1-2.7 4.6 6 6 0 0 1-2.4 1 54 54 0 0 1-1.6 15 55 55 0 0 1-46 38.4c-24 2.2-47.9-4.1-59.6-27a43 43 0 0 1-5.7-17.5q-2.2 0-4.1-2a16 16 0 0 1-3-8.3q-.9-8.6 2-12.4 1.5-2 3.6-2.6 1.9-.6 3.8.2a33 33 0 0 1 4-9l.3-.7a38 38 0 0 1 16.2-13 90 90 0 0 1 26.3-7.5c19-2.5 40.4.5 53.6 14.5" fill="#ffffff"/><path d="M80.2 148.4c-6.1 8.8-10.8 34.4-.6 51 11.6 22.6 35.3 29 59.6 26.7a55 55 0 0 0 45.7-38 56 56 0 0 0-8.4-45.6" stroke="black" stroke-width="3" stroke-linecap="round" stroke-linejoin="round"/><path d="M182.7 151.9c2.6-1.2 5.6-1.7 7.4 1.5s3.2 7.3 1.7 13.6c-1 4-3.3 4.9-5.3 4.9m-112-13.8c-4.2-2-9.1 2.3-7.8 13.4 1 7.8 4 9.5 6.5 9.2" stroke="black" stroke-width="3" stroke-linecap="round" stroke-linejoin="round"/><use transform="translate(115 160)" href="#nose-variant02-b25356d1"/><use transform="translate(102 203)" href="#mouth-variant17-b25356d1"/><use transform="translate(1 38)" href="#top-variant23-b25356d1"/><use transform="translate(76 141)" href="#eyes-variant11-b25356d1"/></g><clipPath id="clip-b25356d1"><rect width="256" height="256" rx="0" ry="0"/></clipPath></defs><g clip-path="url(#clip-b25356d1)"><use transform="translate(-1.5 -33.5)" href="#head-variant01-b25356d1"/></g></svg>